<mxfile host="Electron" agent="Mozilla/5.0 (Windows NT 10.0; Win64; x64) AppleWebKit/537.36 (KHTML, like Gecko) draw.io/24.7.5 Chrome/126.0.6478.183 Electron/31.3.0 Safari/537.36" version="24.7.5" pages="9">
  <diagram id="zFabf_oDKLMSgbU8cxra" name="Pod">
    <mxGraphModel dx="1211" dy="524" grid="1" gridSize="10" guides="1" tooltips="1" connect="1" arrows="1" fold="1" page="1" pageScale="1" pageWidth="850" pageHeight="1100" math="0" shadow="0">
      <root>
        <mxCell id="0" />
        <mxCell id="1" parent="0" />
        <mxCell id="x2UBePSSHlINZQSKpGU7-1" value="" style="rounded=0;whiteSpace=wrap;html=1;fillColor=#ffe6cc;strokeColor=#d79b00;" vertex="1" parent="1">
          <mxGeometry x="150" y="130" width="550" height="490" as="geometry" />
        </mxCell>
        <mxCell id="x2UBePSSHlINZQSKpGU7-2" value="" style="rounded=0;whiteSpace=wrap;html=1;fillColor=#d5e8d4;strokeColor=#82b366;" vertex="1" parent="1">
          <mxGeometry x="205" y="160" width="440" height="450" as="geometry" />
        </mxCell>
        <mxCell id="x2UBePSSHlINZQSKpGU7-3" value="" style="rounded=0;whiteSpace=wrap;html=1;fillColor=#dae8fc;strokeColor=#6c8ebf;" vertex="1" parent="1">
          <mxGeometry x="235" y="180" width="375" height="420" as="geometry" />
        </mxCell>
        <mxCell id="x2UBePSSHlINZQSKpGU7-4" style="edgeStyle=orthogonalEdgeStyle;rounded=0;orthogonalLoop=1;jettySize=auto;html=1;" edge="1" parent="1" source="x2UBePSSHlINZQSKpGU7-5" target="x2UBePSSHlINZQSKpGU7-10">
          <mxGeometry relative="1" as="geometry" />
        </mxCell>
        <mxCell id="x2UBePSSHlINZQSKpGU7-5" value="&lt;font style=&quot;font-size: 18px;&quot;&gt;&lt;i&gt;sysinfo(),gethostname(),sleep(),getuid(), connect(),bind(),open(),........&lt;/i&gt;&lt;/font&gt;" style="rounded=0;whiteSpace=wrap;html=1;" vertex="1" parent="1">
          <mxGeometry x="235" y="310" width="375" height="60" as="geometry" />
        </mxCell>
        <mxCell id="x2UBePSSHlINZQSKpGU7-6" style="edgeStyle=orthogonalEdgeStyle;rounded=0;orthogonalLoop=1;jettySize=auto;html=1;" edge="1" parent="1" source="x2UBePSSHlINZQSKpGU7-7" target="x2UBePSSHlINZQSKpGU7-5">
          <mxGeometry relative="1" as="geometry" />
        </mxCell>
        <mxCell id="x2UBePSSHlINZQSKpGU7-7" value="&lt;font style=&quot;font-size: 18px;&quot;&gt;Our Code in Node JS&lt;/font&gt;" style="rounded=0;whiteSpace=wrap;html=1;" vertex="1" parent="1">
          <mxGeometry x="235" y="200" width="375" height="40" as="geometry" />
        </mxCell>
        <mxCell id="x2UBePSSHlINZQSKpGU7-8" value="&lt;i style=&quot;font-size: 18px; text-wrap: wrap;&quot;&gt;os.hostname()&lt;/i&gt;" style="text;html=1;align=center;verticalAlign=middle;resizable=0;points=[];autosize=1;strokeColor=none;fillColor=none;" vertex="1" parent="1">
          <mxGeometry x="290" y="250" width="140" height="40" as="geometry" />
        </mxCell>
        <mxCell id="x2UBePSSHlINZQSKpGU7-9" style="edgeStyle=orthogonalEdgeStyle;rounded=0;orthogonalLoop=1;jettySize=auto;html=1;entryX=0.5;entryY=0;entryDx=0;entryDy=0;" edge="1" parent="1" source="x2UBePSSHlINZQSKpGU7-10" target="x2UBePSSHlINZQSKpGU7-12">
          <mxGeometry relative="1" as="geometry" />
        </mxCell>
        <mxCell id="x2UBePSSHlINZQSKpGU7-10" value="&lt;font style=&quot;font-size: 18px;&quot;&gt;Kernel&lt;/font&gt;" style="rounded=0;whiteSpace=wrap;html=1;" vertex="1" parent="1">
          <mxGeometry x="235" y="420" width="375" height="40" as="geometry" />
        </mxCell>
        <mxCell id="x2UBePSSHlINZQSKpGU7-11" value="&lt;i style=&quot;font-size: 18px; text-wrap: wrap;&quot;&gt;gethostname()&lt;/i&gt;" style="text;html=1;align=center;verticalAlign=middle;resizable=0;points=[];autosize=1;strokeColor=none;fillColor=none;" vertex="1" parent="1">
          <mxGeometry x="290" y="380" width="140" height="40" as="geometry" />
        </mxCell>
        <mxCell id="x2UBePSSHlINZQSKpGU7-12" value="&lt;span style=&quot;font-size: 18px;&quot;&gt;&lt;b&gt;UTS Namespace&lt;/b&gt;&lt;/span&gt;" style="rounded=0;whiteSpace=wrap;html=1;" vertex="1" parent="1">
          <mxGeometry x="147.5" y="500" width="550" height="80" as="geometry" />
        </mxCell>
        <mxCell id="x2UBePSSHlINZQSKpGU7-13" value="&lt;font style=&quot;font-size: 18px;&quot;&gt;&lt;b&gt;Kubernetes&lt;/b&gt;&lt;/font&gt;" style="text;html=1;align=center;verticalAlign=middle;resizable=0;points=[];autosize=1;strokeColor=none;fillColor=none;" vertex="1" parent="1">
          <mxGeometry x="140" y="90" width="120" height="40" as="geometry" />
        </mxCell>
        <mxCell id="x2UBePSSHlINZQSKpGU7-14" value="&lt;font style=&quot;font-size: 18px;&quot;&gt;&lt;b&gt;Pod&lt;/b&gt;&lt;/font&gt;" style="text;html=1;align=center;verticalAlign=middle;resizable=0;points=[];autosize=1;strokeColor=none;fillColor=none;" vertex="1" parent="1">
          <mxGeometry x="190" y="130" width="60" height="40" as="geometry" />
        </mxCell>
      </root>
    </mxGraphModel>
  </diagram>
  <diagram id="1sv4oFxbKhpCi-dcSZxC" name="policy">
    <mxGraphModel dx="1960" dy="480" grid="1" gridSize="10" guides="1" tooltips="1" connect="1" arrows="1" fold="1" page="1" pageScale="1" pageWidth="850" pageHeight="1100" math="0" shadow="0">
      <root>
        <mxCell id="0" />
        <mxCell id="1" parent="0" />
        <mxCell id="FcfA-TwwYZG6TEuEyqQ8-1" value="" style="shape=table;startSize=0;container=1;collapsible=0;childLayout=tableLayout;fontSize=16;" parent="1" vertex="1">
          <mxGeometry x="-655" y="270" width="740" height="40" as="geometry" />
        </mxCell>
        <mxCell id="FcfA-TwwYZG6TEuEyqQ8-2" style="shape=tableRow;horizontal=0;startSize=0;swimlaneHead=0;swimlaneBody=0;strokeColor=inherit;top=0;left=0;bottom=0;right=0;collapsible=0;dropTarget=0;fillColor=none;points=[[0,0.5],[1,0.5]];portConstraint=eastwest;fontSize=16;" parent="FcfA-TwwYZG6TEuEyqQ8-1" vertex="1">
          <mxGeometry width="740" height="40" as="geometry" />
        </mxCell>
        <mxCell id="FcfA-TwwYZG6TEuEyqQ8-3" value="kubectl" style="shape=partialRectangle;html=1;whiteSpace=wrap;connectable=0;strokeColor=inherit;overflow=hidden;fillColor=none;top=0;left=0;bottom=0;right=0;pointerEvents=1;fontSize=16;" parent="FcfA-TwwYZG6TEuEyqQ8-2" vertex="1">
          <mxGeometry width="80" height="40" as="geometry">
            <mxRectangle width="80" height="40" as="alternateBounds" />
          </mxGeometry>
        </mxCell>
        <mxCell id="FcfA-TwwYZG6TEuEyqQ8-4" value="run" style="shape=partialRectangle;html=1;whiteSpace=wrap;connectable=0;strokeColor=inherit;overflow=hidden;fillColor=none;top=0;left=0;bottom=0;right=0;pointerEvents=1;fontSize=16;" parent="FcfA-TwwYZG6TEuEyqQ8-2" vertex="1">
          <mxGeometry x="80" width="55" height="40" as="geometry">
            <mxRectangle width="55" height="40" as="alternateBounds" />
          </mxGeometry>
        </mxCell>
        <mxCell id="FcfA-TwwYZG6TEuEyqQ8-5" value="&amp;lt;pod-name&amp;gt;" style="shape=partialRectangle;html=1;whiteSpace=wrap;connectable=0;strokeColor=inherit;overflow=hidden;fillColor=none;top=0;left=0;bottom=0;right=0;pointerEvents=1;fontSize=16;" parent="FcfA-TwwYZG6TEuEyqQ8-2" vertex="1">
          <mxGeometry x="135" width="115" height="40" as="geometry">
            <mxRectangle width="115" height="40" as="alternateBounds" />
          </mxGeometry>
        </mxCell>
        <mxCell id="FcfA-TwwYZG6TEuEyqQ8-6" value="--image=&amp;lt;image-name&amp;gt;" style="shape=partialRectangle;html=1;whiteSpace=wrap;connectable=0;strokeColor=inherit;overflow=hidden;fillColor=none;top=0;left=0;bottom=0;right=0;pointerEvents=1;fontSize=16;" parent="FcfA-TwwYZG6TEuEyqQ8-2" vertex="1">
          <mxGeometry x="250" width="200" height="40" as="geometry">
            <mxRectangle width="200" height="40" as="alternateBounds" />
          </mxGeometry>
        </mxCell>
        <mxCell id="FcfA-TwwYZG6TEuEyqQ8-7" value="--restart=Never" style="shape=partialRectangle;html=1;whiteSpace=wrap;connectable=0;strokeColor=inherit;overflow=hidden;fillColor=none;top=0;left=0;bottom=0;right=0;pointerEvents=1;fontSize=16;" parent="FcfA-TwwYZG6TEuEyqQ8-2" vertex="1">
          <mxGeometry x="450" width="140" height="40" as="geometry">
            <mxRectangle width="140" height="40" as="alternateBounds" />
          </mxGeometry>
        </mxCell>
        <mxCell id="FcfA-TwwYZG6TEuEyqQ8-8" value="--port=&amp;lt;app&#39;s port&amp;gt;" style="shape=partialRectangle;html=1;whiteSpace=wrap;connectable=0;strokeColor=inherit;overflow=hidden;fillColor=none;top=0;left=0;bottom=0;right=0;pointerEvents=1;fontSize=16;" parent="FcfA-TwwYZG6TEuEyqQ8-2" vertex="1">
          <mxGeometry x="590" width="150" height="40" as="geometry">
            <mxRectangle width="150" height="40" as="alternateBounds" />
          </mxGeometry>
        </mxCell>
        <mxCell id="FcfA-TwwYZG6TEuEyqQ8-9" value="" style="shape=curlyBracket;whiteSpace=wrap;html=1;rounded=1;labelPosition=left;verticalLabelPosition=middle;align=right;verticalAlign=middle;rotation=90;" parent="1" vertex="1">
          <mxGeometry x="-610" y="185" width="40" height="120" as="geometry" />
        </mxCell>
        <mxCell id="FcfA-TwwYZG6TEuEyqQ8-10" value="&lt;span style=&quot;font-weight: normal;&quot;&gt;&lt;font style=&quot;font-size: 18px;&quot;&gt;Creating &amp;amp; Running K8s Resouce&lt;/font&gt;&lt;/span&gt;" style="text;strokeColor=none;fillColor=none;html=1;fontSize=24;fontStyle=1;verticalAlign=middle;align=center;" parent="1" vertex="1">
          <mxGeometry x="-730" y="185" width="290" height="40" as="geometry" />
        </mxCell>
        <mxCell id="FcfA-TwwYZG6TEuEyqQ8-11" value="" style="shape=curlyBracket;whiteSpace=wrap;html=1;rounded=1;labelPosition=left;verticalLabelPosition=middle;align=right;verticalAlign=middle;rotation=-90;" parent="1" vertex="1">
          <mxGeometry x="-480" y="290" width="40" height="100" as="geometry" />
        </mxCell>
        <mxCell id="FcfA-TwwYZG6TEuEyqQ8-12" value="&lt;span style=&quot;font-weight: normal;&quot;&gt;&lt;font style=&quot;font-size: 18px;&quot;&gt;Name of the Pod&lt;/font&gt;&lt;/span&gt;" style="text;strokeColor=none;fillColor=none;html=1;fontSize=24;fontStyle=1;verticalAlign=middle;align=center;" parent="1" vertex="1">
          <mxGeometry x="-550" y="350" width="160" height="40" as="geometry" />
        </mxCell>
        <mxCell id="FcfA-TwwYZG6TEuEyqQ8-13" value="" style="shape=curlyBracket;whiteSpace=wrap;html=1;rounded=1;labelPosition=left;verticalLabelPosition=middle;align=right;verticalAlign=middle;rotation=90;" parent="1" vertex="1">
          <mxGeometry x="-325" y="152.5" width="40" height="185" as="geometry" />
        </mxCell>
        <mxCell id="FcfA-TwwYZG6TEuEyqQ8-14" value="&lt;span style=&quot;font-weight: normal;&quot;&gt;&lt;font style=&quot;font-size: 18px;&quot;&gt;Container&#39;s Image to use in the Pod&lt;/font&gt;&lt;/span&gt;" style="text;strokeColor=none;fillColor=none;html=1;fontSize=24;fontStyle=1;verticalAlign=middle;align=center;" parent="1" vertex="1">
          <mxGeometry x="-420" y="185" width="290" height="40" as="geometry" />
        </mxCell>
        <mxCell id="FcfA-TwwYZG6TEuEyqQ8-15" value="" style="shape=curlyBracket;whiteSpace=wrap;html=1;rounded=1;labelPosition=left;verticalLabelPosition=middle;align=right;verticalAlign=middle;rotation=-90;" parent="1" vertex="1">
          <mxGeometry x="-155" y="285" width="40" height="110" as="geometry" />
        </mxCell>
        <mxCell id="FcfA-TwwYZG6TEuEyqQ8-16" value="&lt;font style=&quot;font-size: 18px;&quot;&gt;Restart Policy&lt;/font&gt;" style="text;strokeColor=none;fillColor=none;html=1;fontSize=24;fontStyle=1;verticalAlign=middle;align=center;" parent="1" vertex="1">
          <mxGeometry x="-201.25" y="350" width="132.5" height="40" as="geometry" />
        </mxCell>
        <mxCell id="FcfA-TwwYZG6TEuEyqQ8-17" value="" style="shape=curlyBracket;whiteSpace=wrap;html=1;rounded=1;labelPosition=left;verticalLabelPosition=middle;align=right;verticalAlign=middle;rotation=90;" parent="1" vertex="1">
          <mxGeometry x="-10" y="176.25" width="40" height="137.5" as="geometry" />
        </mxCell>
        <mxCell id="FcfA-TwwYZG6TEuEyqQ8-18" value="&lt;span style=&quot;font-weight: normal;&quot;&gt;&lt;font style=&quot;font-size: 18px;&quot;&gt;Container&#39;s Port&lt;/font&gt;&lt;/span&gt;" style="text;strokeColor=none;fillColor=none;html=1;fontSize=24;fontStyle=1;verticalAlign=middle;align=center;" parent="1" vertex="1">
          <mxGeometry x="-95" y="185" width="235" height="40" as="geometry" />
        </mxCell>
      </root>
    </mxGraphModel>
  </diagram>
  <diagram id="MMqLvK13f86jvwiDYQ0p" name="Start">
    <mxGraphModel dx="1110" dy="480" grid="1" gridSize="10" guides="1" tooltips="1" connect="1" arrows="1" fold="1" page="1" pageScale="1" pageWidth="850" pageHeight="1100" math="0" shadow="0">
      <root>
        <mxCell id="0" />
        <mxCell id="1" parent="0" />
        <mxCell id="BIkh-ZM9ct2O8xui76E7-1" value="" style="rounded=0;whiteSpace=wrap;html=1;fillColor=#dae8fc;strokeColor=#6c8ebf;" parent="1" vertex="1">
          <mxGeometry x="20" y="70" width="360" height="170" as="geometry" />
        </mxCell>
        <mxCell id="BIkh-ZM9ct2O8xui76E7-2" value="" style="rounded=0;whiteSpace=wrap;html=1;fillColor=#d5e8d4;strokeColor=#82b366;" parent="1" vertex="1">
          <mxGeometry x="60" y="100" width="280" height="110" as="geometry" />
        </mxCell>
        <mxCell id="BIkh-ZM9ct2O8xui76E7-4" value="&lt;font style=&quot;font-size: 18px;&quot;&gt;Container2&lt;/font&gt;" style="rounded=1;whiteSpace=wrap;html=1;" parent="1" vertex="1">
          <mxGeometry x="205" y="130" width="110" height="55" as="geometry" />
        </mxCell>
        <mxCell id="BIkh-ZM9ct2O8xui76E7-8" value="&lt;font style=&quot;font-size: 18px;&quot;&gt;Container1&lt;/font&gt;" style="rounded=1;whiteSpace=wrap;html=1;" parent="1" vertex="1">
          <mxGeometry x="75" y="130" width="110" height="55" as="geometry" />
        </mxCell>
        <mxCell id="BIkh-ZM9ct2O8xui76E7-9" value="" style="rounded=0;whiteSpace=wrap;html=1;fillColor=#dae8fc;strokeColor=#6c8ebf;" parent="1" vertex="1">
          <mxGeometry x="470" y="70" width="360" height="170" as="geometry" />
        </mxCell>
        <mxCell id="BIkh-ZM9ct2O8xui76E7-10" value="" style="rounded=0;whiteSpace=wrap;html=1;fillColor=#d5e8d4;strokeColor=#82b366;" parent="1" vertex="1">
          <mxGeometry x="510" y="100" width="280" height="110" as="geometry" />
        </mxCell>
        <mxCell id="BIkh-ZM9ct2O8xui76E7-12" value="&lt;font style=&quot;font-size: 18px;&quot;&gt;Container3&lt;/font&gt;" style="rounded=1;whiteSpace=wrap;html=1;" parent="1" vertex="1">
          <mxGeometry x="595" y="130" width="110" height="55" as="geometry" />
        </mxCell>
        <mxCell id="BIkh-ZM9ct2O8xui76E7-13" value="" style="rounded=0;whiteSpace=wrap;html=1;fillColor=#dae8fc;strokeColor=#6c8ebf;" parent="1" vertex="1">
          <mxGeometry x="245" y="330" width="360" height="140" as="geometry" />
        </mxCell>
        <mxCell id="BIkh-ZM9ct2O8xui76E7-17" value="&lt;font style=&quot;font-size: 20px;&quot;&gt;Master Node&lt;/font&gt;" style="rounded=0;whiteSpace=wrap;html=1;" parent="1" vertex="1">
          <mxGeometry x="298" y="365" width="255" height="65" as="geometry" />
        </mxCell>
      </root>
    </mxGraphModel>
  </diagram>
  <diagram name="Inside Each" id="SH_o5WsJbnxFKO9ir8pj">
    <mxGraphModel dx="1110" dy="1580" grid="1" gridSize="10" guides="1" tooltips="1" connect="1" arrows="1" fold="1" page="1" pageScale="1" pageWidth="850" pageHeight="1100" math="0" shadow="0">
      <root>
        <mxCell id="1_sPYnpBO84ZViXcLQ8G-0" />
        <mxCell id="1_sPYnpBO84ZViXcLQ8G-1" parent="1_sPYnpBO84ZViXcLQ8G-0" />
        <mxCell id="1_sPYnpBO84ZViXcLQ8G-2" value="" style="rounded=0;whiteSpace=wrap;html=1;fillColor=#dae8fc;strokeColor=#6c8ebf;" parent="1_sPYnpBO84ZViXcLQ8G-1" vertex="1">
          <mxGeometry x="90" y="-130" width="680" height="230" as="geometry" />
        </mxCell>
        <mxCell id="1_sPYnpBO84ZViXcLQ8G-3" value="" style="rounded=0;whiteSpace=wrap;html=1;fillColor=#d5e8d4;strokeColor=#82b366;" parent="1_sPYnpBO84ZViXcLQ8G-1" vertex="1">
          <mxGeometry x="110" y="-110" width="280" height="90" as="geometry" />
        </mxCell>
        <mxCell id="1_sPYnpBO84ZViXcLQ8G-4" value="&lt;font style=&quot;font-size: 18px;&quot;&gt;Container2&lt;/font&gt;" style="rounded=1;whiteSpace=wrap;html=1;" parent="1_sPYnpBO84ZViXcLQ8G-1" vertex="1">
          <mxGeometry x="260" y="-90" width="110" height="50" as="geometry" />
        </mxCell>
        <mxCell id="1_sPYnpBO84ZViXcLQ8G-5" value="&lt;font style=&quot;font-size: 18px;&quot;&gt;Container1&lt;/font&gt;" style="rounded=1;whiteSpace=wrap;html=1;" parent="1_sPYnpBO84ZViXcLQ8G-1" vertex="1">
          <mxGeometry x="120" y="-90" width="110" height="50" as="geometry" />
        </mxCell>
        <mxCell id="O53bkilQwn83OYFLSUFM-0" value="&lt;font style=&quot;font-size: 18px;&quot;&gt;Kube-Proxy&lt;/font&gt;" style="rounded=0;whiteSpace=wrap;html=1;fillColor=#d5e8d4;strokeColor=#82b366;" parent="1_sPYnpBO84ZViXcLQ8G-1" vertex="1">
          <mxGeometry x="330" y="60" width="220" height="40" as="geometry" />
        </mxCell>
        <mxCell id="O53bkilQwn83OYFLSUFM-1" value="&lt;font style=&quot;font-size: 18px;&quot;&gt;Container Runtime (e.g Docker, containerd)&lt;/font&gt;" style="rounded=0;whiteSpace=wrap;html=1;fillColor=#d5e8d4;strokeColor=#82b366;" parent="1_sPYnpBO84ZViXcLQ8G-1" vertex="1">
          <mxGeometry x="510" y="-110" width="240" height="70" as="geometry" />
        </mxCell>
        <mxCell id="O53bkilQwn83OYFLSUFM-2" value="&lt;font style=&quot;font-size: 18px;&quot;&gt;Kubelet&lt;/font&gt;" style="rounded=0;whiteSpace=wrap;html=1;fillColor=#d5e8d4;strokeColor=#82b366;" parent="1_sPYnpBO84ZViXcLQ8G-1" vertex="1">
          <mxGeometry x="530" width="220" height="40" as="geometry" />
        </mxCell>
        <mxCell id="Z6cEBmDnurwnZXiefSvx-0" value="" style="rounded=0;whiteSpace=wrap;html=1;fillColor=#dae8fc;strokeColor=#6c8ebf;" parent="1_sPYnpBO84ZViXcLQ8G-1" vertex="1">
          <mxGeometry x="90" y="150" width="680" height="160" as="geometry" />
        </mxCell>
        <mxCell id="Z6cEBmDnurwnZXiefSvx-1" value="&lt;font style=&quot;font-size: 18px;&quot;&gt;API-Server&lt;/font&gt;" style="rounded=0;whiteSpace=wrap;html=1;fillColor=#d5e8d4;strokeColor=#82b366;" parent="1_sPYnpBO84ZViXcLQ8G-1" vertex="1">
          <mxGeometry x="340" y="150" width="220" height="40" as="geometry" />
        </mxCell>
        <mxCell id="Z6cEBmDnurwnZXiefSvx-3" value="&lt;font style=&quot;font-size: 18px;&quot;&gt;Controller Manager&lt;/font&gt;" style="rounded=0;whiteSpace=wrap;html=1;fillColor=#d5e8d4;strokeColor=#82b366;" parent="1_sPYnpBO84ZViXcLQ8G-1" vertex="1">
          <mxGeometry x="110" y="210" width="220" height="40" as="geometry" />
        </mxCell>
        <mxCell id="Z6cEBmDnurwnZXiefSvx-4" value="&lt;font style=&quot;font-size: 18px;&quot;&gt;etcd cluster&lt;/font&gt;" style="rounded=0;whiteSpace=wrap;html=1;fillColor=#d5e8d4;strokeColor=#82b366;" parent="1_sPYnpBO84ZViXcLQ8G-1" vertex="1">
          <mxGeometry x="530" y="210" width="220" height="40" as="geometry" />
        </mxCell>
        <mxCell id="Z6cEBmDnurwnZXiefSvx-5" value="&lt;font style=&quot;font-size: 18px;&quot;&gt;kube-Scheduler&lt;/font&gt;" style="rounded=0;whiteSpace=wrap;html=1;fillColor=#d5e8d4;strokeColor=#82b366;" parent="1_sPYnpBO84ZViXcLQ8G-1" vertex="1">
          <mxGeometry x="330" y="270" width="220" height="40" as="geometry" />
        </mxCell>
      </root>
    </mxGraphModel>
  </diagram>
  <diagram name="Runtime" id="YK0VM9XNKcX5Lwpoi295">
    <mxGraphModel dx="1110" dy="1580" grid="1" gridSize="10" guides="1" tooltips="1" connect="1" arrows="1" fold="1" page="1" pageScale="1" pageWidth="850" pageHeight="1100" math="0" shadow="0">
      <root>
        <mxCell id="4GSti_1yoCVgT9ycdviL-0" />
        <mxCell id="4GSti_1yoCVgT9ycdviL-1" parent="4GSti_1yoCVgT9ycdviL-0" />
        <mxCell id="4GSti_1yoCVgT9ycdviL-2" value="" style="rounded=0;whiteSpace=wrap;html=1;fillColor=#dae8fc;strokeColor=#6c8ebf;" parent="4GSti_1yoCVgT9ycdviL-1" vertex="1">
          <mxGeometry x="100" y="-50" width="680" height="340" as="geometry" />
        </mxCell>
        <mxCell id="4GSti_1yoCVgT9ycdviL-3" value="" style="rounded=0;whiteSpace=wrap;html=1;fillColor=#d5e8d4;strokeColor=#82b366;" parent="4GSti_1yoCVgT9ycdviL-1" vertex="1">
          <mxGeometry x="120" width="280" height="110" as="geometry" />
        </mxCell>
        <mxCell id="4GSti_1yoCVgT9ycdviL-4" value="&lt;font style=&quot;font-size: 18px;&quot;&gt;Container2&lt;/font&gt;" style="rounded=1;whiteSpace=wrap;html=1;" parent="4GSti_1yoCVgT9ycdviL-1" vertex="1">
          <mxGeometry x="270" y="20" width="110" height="70" as="geometry" />
        </mxCell>
        <mxCell id="4GSti_1yoCVgT9ycdviL-5" value="&lt;font style=&quot;font-size: 18px;&quot;&gt;Container1&lt;/font&gt;" style="rounded=1;whiteSpace=wrap;html=1;" parent="4GSti_1yoCVgT9ycdviL-1" vertex="1">
          <mxGeometry x="130" y="20" width="110" height="70" as="geometry" />
        </mxCell>
        <mxCell id="4GSti_1yoCVgT9ycdviL-8" value="&lt;font style=&quot;font-size: 18px;&quot;&gt;Kube-Proxy&lt;/font&gt;" style="rounded=0;whiteSpace=wrap;html=1;fillColor=#d5e8d4;strokeColor=#82b366;" parent="4GSti_1yoCVgT9ycdviL-1" vertex="1">
          <mxGeometry x="310" y="240" width="220" height="50" as="geometry" />
        </mxCell>
        <mxCell id="4GSti_1yoCVgT9ycdviL-9" style="edgeStyle=orthogonalEdgeStyle;rounded=0;orthogonalLoop=1;jettySize=auto;html=1;entryX=0.5;entryY=0;entryDx=0;entryDy=0;" parent="4GSti_1yoCVgT9ycdviL-1" source="4GSti_1yoCVgT9ycdviL-11" target="4GSti_1yoCVgT9ycdviL-5" edge="1">
          <mxGeometry relative="1" as="geometry">
            <Array as="points">
              <mxPoint x="185" y="-20" />
            </Array>
          </mxGeometry>
        </mxCell>
        <mxCell id="4GSti_1yoCVgT9ycdviL-10" style="edgeStyle=orthogonalEdgeStyle;rounded=0;orthogonalLoop=1;jettySize=auto;html=1;entryX=0.5;entryY=0;entryDx=0;entryDy=0;" parent="4GSti_1yoCVgT9ycdviL-1" source="4GSti_1yoCVgT9ycdviL-11" target="4GSti_1yoCVgT9ycdviL-4" edge="1">
          <mxGeometry relative="1" as="geometry">
            <Array as="points">
              <mxPoint x="325" y="-20" />
            </Array>
          </mxGeometry>
        </mxCell>
        <mxCell id="9eMf_CwlF-Q4BZbLC5zE-1" style="edgeStyle=orthogonalEdgeStyle;rounded=0;orthogonalLoop=1;jettySize=auto;html=1;entryX=0.5;entryY=0;entryDx=0;entryDy=0;strokeWidth=2;" parent="4GSti_1yoCVgT9ycdviL-1" source="4GSti_1yoCVgT9ycdviL-11" target="4GSti_1yoCVgT9ycdviL-14" edge="1">
          <mxGeometry relative="1" as="geometry" />
        </mxCell>
        <mxCell id="4GSti_1yoCVgT9ycdviL-11" value="&lt;font style=&quot;font-size: 18px;&quot;&gt;Container Runtime (e.g Docker, containerd)&lt;/font&gt;" style="rounded=0;whiteSpace=wrap;html=1;fillColor=#d5e8d4;strokeColor=#82b366;" parent="4GSti_1yoCVgT9ycdviL-1" vertex="1">
          <mxGeometry x="540" y="-30" width="220" height="70" as="geometry" />
        </mxCell>
        <mxCell id="4GSti_1yoCVgT9ycdviL-14" value="&lt;font style=&quot;font-size: 18px;&quot;&gt;Kubelet&lt;/font&gt;" style="rounded=0;whiteSpace=wrap;html=1;fillColor=#d5e8d4;strokeColor=#82b366;" parent="4GSti_1yoCVgT9ycdviL-1" vertex="1">
          <mxGeometry x="540" y="132.5" width="220" height="70" as="geometry" />
        </mxCell>
        <mxCell id="_tpxIlWskqmaaSkFiIgF-1" style="edgeStyle=orthogonalEdgeStyle;rounded=0;orthogonalLoop=1;jettySize=auto;html=1;strokeWidth=2;" parent="4GSti_1yoCVgT9ycdviL-1" source="4GSti_1yoCVgT9ycdviL-15" edge="1">
          <mxGeometry relative="1" as="geometry">
            <mxPoint x="650" y="40" as="targetPoint" />
          </mxGeometry>
        </mxCell>
        <mxCell id="4GSti_1yoCVgT9ycdviL-15" value="&lt;font style=&quot;font-size: 16px;&quot;&gt;Container Runtime Interface (CRI)&lt;/font&gt;" style="text;align=left;verticalAlign=middle;rounded=0;html=1;whiteSpace=wrap;" parent="4GSti_1yoCVgT9ycdviL-1" vertex="1">
          <mxGeometry x="520" y="102.5" width="260" height="30" as="geometry" />
        </mxCell>
        <mxCell id="4GSti_1yoCVgT9ycdviL-16" value="&lt;font style=&quot;font-size: 16px;&quot;&gt;&lt;b&gt;Pull Images, Create, start, stop, and remove containers&lt;/b&gt;&lt;/font&gt;" style="text;whiteSpace=wrap;html=1;" parent="4GSti_1yoCVgT9ycdviL-1" vertex="1">
          <mxGeometry x="100" y="-50" width="420" height="40" as="geometry" />
        </mxCell>
      </root>
    </mxGraphModel>
  </diagram>
  <diagram name="Minitoring" id="9LFYHHqvINZZ1dt9Y8pA">
    <mxGraphModel dx="1110" dy="1580" grid="1" gridSize="10" guides="1" tooltips="1" connect="1" arrows="1" fold="1" page="1" pageScale="1" pageWidth="850" pageHeight="1100" math="0" shadow="0">
      <root>
        <mxCell id="tigRV7HV3Spg76wYsBH1-0" />
        <mxCell id="tigRV7HV3Spg76wYsBH1-1" parent="tigRV7HV3Spg76wYsBH1-0" />
        <mxCell id="tigRV7HV3Spg76wYsBH1-2" value="" style="rounded=0;whiteSpace=wrap;html=1;fillColor=#dae8fc;strokeColor=#6c8ebf;" parent="tigRV7HV3Spg76wYsBH1-1" vertex="1">
          <mxGeometry x="100" y="-50" width="680" height="340" as="geometry" />
        </mxCell>
        <mxCell id="tigRV7HV3Spg76wYsBH1-3" value="" style="rounded=0;whiteSpace=wrap;html=1;fillColor=#d5e8d4;strokeColor=#82b366;" parent="tigRV7HV3Spg76wYsBH1-1" vertex="1">
          <mxGeometry x="120" width="280" height="110" as="geometry" />
        </mxCell>
        <mxCell id="tigRV7HV3Spg76wYsBH1-4" value="&lt;font style=&quot;font-size: 18px;&quot;&gt;Container2&lt;/font&gt;" style="rounded=1;whiteSpace=wrap;html=1;" parent="tigRV7HV3Spg76wYsBH1-1" vertex="1">
          <mxGeometry x="270" y="20" width="110" height="70" as="geometry" />
        </mxCell>
        <mxCell id="tigRV7HV3Spg76wYsBH1-5" value="&lt;font style=&quot;font-size: 18px;&quot;&gt;Container1&lt;/font&gt;" style="rounded=1;whiteSpace=wrap;html=1;" parent="tigRV7HV3Spg76wYsBH1-1" vertex="1">
          <mxGeometry x="130" y="20" width="110" height="70" as="geometry" />
        </mxCell>
        <mxCell id="tigRV7HV3Spg76wYsBH1-6" value="&lt;font style=&quot;font-size: 18px;&quot;&gt;Kube-Proxy&lt;/font&gt;" style="rounded=0;whiteSpace=wrap;html=1;fillColor=#d5e8d4;strokeColor=#82b366;" parent="tigRV7HV3Spg76wYsBH1-1" vertex="1">
          <mxGeometry x="310" y="240" width="220" height="50" as="geometry" />
        </mxCell>
        <mxCell id="tigRV7HV3Spg76wYsBH1-7" style="edgeStyle=orthogonalEdgeStyle;rounded=0;orthogonalLoop=1;jettySize=auto;html=1;entryX=0.5;entryY=0;entryDx=0;entryDy=0;" parent="tigRV7HV3Spg76wYsBH1-1" source="tigRV7HV3Spg76wYsBH1-9" target="tigRV7HV3Spg76wYsBH1-5" edge="1">
          <mxGeometry relative="1" as="geometry">
            <Array as="points">
              <mxPoint x="185" y="-20" />
            </Array>
          </mxGeometry>
        </mxCell>
        <mxCell id="tigRV7HV3Spg76wYsBH1-8" style="edgeStyle=orthogonalEdgeStyle;rounded=0;orthogonalLoop=1;jettySize=auto;html=1;entryX=0.5;entryY=0;entryDx=0;entryDy=0;" parent="tigRV7HV3Spg76wYsBH1-1" source="tigRV7HV3Spg76wYsBH1-9" target="tigRV7HV3Spg76wYsBH1-4" edge="1">
          <mxGeometry relative="1" as="geometry">
            <Array as="points">
              <mxPoint x="325" y="-20" />
            </Array>
          </mxGeometry>
        </mxCell>
        <mxCell id="RJPx2e-zIwFHq3C8BqJ1-0" style="edgeStyle=orthogonalEdgeStyle;rounded=0;orthogonalLoop=1;jettySize=auto;html=1;entryX=0.5;entryY=0;entryDx=0;entryDy=0;strokeWidth=2;" parent="tigRV7HV3Spg76wYsBH1-1" source="tigRV7HV3Spg76wYsBH1-9" target="tigRV7HV3Spg76wYsBH1-12" edge="1">
          <mxGeometry relative="1" as="geometry" />
        </mxCell>
        <mxCell id="tigRV7HV3Spg76wYsBH1-9" value="&lt;font style=&quot;font-size: 18px;&quot;&gt;Container Runtime (e.g Docker, containerd)&lt;/font&gt;" style="rounded=0;whiteSpace=wrap;html=1;fillColor=#d5e8d4;strokeColor=#82b366;" parent="tigRV7HV3Spg76wYsBH1-1" vertex="1">
          <mxGeometry x="540" y="-30" width="220" height="70" as="geometry" />
        </mxCell>
        <mxCell id="tigRV7HV3Spg76wYsBH1-11" style="edgeStyle=orthogonalEdgeStyle;rounded=0;orthogonalLoop=1;jettySize=auto;html=1;entryX=0.5;entryY=1;entryDx=0;entryDy=0;" parent="tigRV7HV3Spg76wYsBH1-1" source="tigRV7HV3Spg76wYsBH1-12" target="tigRV7HV3Spg76wYsBH1-4" edge="1">
          <mxGeometry relative="1" as="geometry" />
        </mxCell>
        <mxCell id="tigRV7HV3Spg76wYsBH1-12" value="&lt;font style=&quot;font-size: 18px;&quot;&gt;Kubelet&lt;/font&gt;" style="rounded=0;whiteSpace=wrap;html=1;fillColor=#d5e8d4;strokeColor=#82b366;" parent="tigRV7HV3Spg76wYsBH1-1" vertex="1">
          <mxGeometry x="540" y="132.5" width="220" height="70" as="geometry" />
        </mxCell>
        <mxCell id="RJPx2e-zIwFHq3C8BqJ1-1" style="edgeStyle=orthogonalEdgeStyle;rounded=0;orthogonalLoop=1;jettySize=auto;html=1;exitX=0.5;exitY=0;exitDx=0;exitDy=0;entryX=0.5;entryY=1;entryDx=0;entryDy=0;strokeWidth=2;" parent="tigRV7HV3Spg76wYsBH1-1" source="tigRV7HV3Spg76wYsBH1-13" target="tigRV7HV3Spg76wYsBH1-9" edge="1">
          <mxGeometry relative="1" as="geometry" />
        </mxCell>
        <mxCell id="tigRV7HV3Spg76wYsBH1-13" value="&lt;font style=&quot;font-size: 16px;&quot;&gt;Container Runtime Interface (CRI)&lt;/font&gt;" style="text;align=left;verticalAlign=middle;rounded=0;html=1;whiteSpace=wrap;" parent="tigRV7HV3Spg76wYsBH1-1" vertex="1">
          <mxGeometry x="520" y="102.5" width="260" height="30" as="geometry" />
        </mxCell>
        <mxCell id="tigRV7HV3Spg76wYsBH1-14" value="&lt;font style=&quot;font-size: 16px;&quot;&gt;&lt;b&gt;Pull Images, Create, start, stop, and remove containers&lt;/b&gt;&lt;/font&gt;" style="text;whiteSpace=wrap;html=1;" parent="tigRV7HV3Spg76wYsBH1-1" vertex="1">
          <mxGeometry x="100" y="-50" width="420" height="40" as="geometry" />
        </mxCell>
        <mxCell id="tigRV7HV3Spg76wYsBH1-15" style="edgeStyle=orthogonalEdgeStyle;rounded=0;orthogonalLoop=1;jettySize=auto;html=1;entryX=0.436;entryY=0.986;entryDx=0;entryDy=0;entryPerimeter=0;" parent="tigRV7HV3Spg76wYsBH1-1" source="tigRV7HV3Spg76wYsBH1-12" target="tigRV7HV3Spg76wYsBH1-5" edge="1">
          <mxGeometry relative="1" as="geometry" />
        </mxCell>
        <mxCell id="tigRV7HV3Spg76wYsBH1-16" value="&lt;font style=&quot;font-size: 16px;&quot;&gt;Also &lt;strong&gt;directly monitors the health and status&lt;/strong&gt; of containers through &lt;strong&gt;probes&lt;/strong&gt;&lt;/font&gt;" style="text;whiteSpace=wrap;html=1;" parent="tigRV7HV3Spg76wYsBH1-1" vertex="1">
          <mxGeometry x="107.5" y="162.5" width="440" height="40" as="geometry" />
        </mxCell>
      </root>
    </mxGraphModel>
  </diagram>
  <diagram name="Restart Policy" id="XzOFZqbAttRAopciXyYl">
    <mxGraphModel dx="1110" dy="1580" grid="1" gridSize="10" guides="1" tooltips="1" connect="1" arrows="1" fold="1" page="1" pageScale="1" pageWidth="850" pageHeight="1100" math="0" shadow="0">
      <root>
        <mxCell id="1_Ghp_yvbXCePE6jHuqn-0" />
        <mxCell id="1_Ghp_yvbXCePE6jHuqn-1" parent="1_Ghp_yvbXCePE6jHuqn-0" />
        <mxCell id="1_Ghp_yvbXCePE6jHuqn-2" value="" style="rounded=0;whiteSpace=wrap;html=1;fillColor=#dae8fc;strokeColor=#6c8ebf;" parent="1_Ghp_yvbXCePE6jHuqn-1" vertex="1">
          <mxGeometry x="100" y="-50" width="680" height="340" as="geometry" />
        </mxCell>
        <mxCell id="1_Ghp_yvbXCePE6jHuqn-3" value="" style="rounded=0;whiteSpace=wrap;html=1;fillColor=#d5e8d4;strokeColor=#82b366;" parent="1_Ghp_yvbXCePE6jHuqn-1" vertex="1">
          <mxGeometry x="120" width="280" height="110" as="geometry" />
        </mxCell>
        <mxCell id="1_Ghp_yvbXCePE6jHuqn-4" value="&lt;font style=&quot;font-size: 18px;&quot;&gt;Container2&lt;/font&gt;" style="rounded=1;whiteSpace=wrap;html=1;" parent="1_Ghp_yvbXCePE6jHuqn-1" vertex="1">
          <mxGeometry x="270" y="20" width="110" height="70" as="geometry" />
        </mxCell>
        <mxCell id="1_Ghp_yvbXCePE6jHuqn-5" value="&lt;font style=&quot;font-size: 18px;&quot;&gt;Container1&lt;/font&gt;" style="rounded=1;whiteSpace=wrap;html=1;fillColor=#fff2cc;strokeColor=#d6b656;" parent="1_Ghp_yvbXCePE6jHuqn-1" vertex="1">
          <mxGeometry x="130" y="20" width="110" height="70" as="geometry" />
        </mxCell>
        <mxCell id="1_Ghp_yvbXCePE6jHuqn-6" value="&lt;font style=&quot;font-size: 18px;&quot;&gt;Kube-Proxy&lt;/font&gt;" style="rounded=0;whiteSpace=wrap;html=1;fillColor=#d5e8d4;strokeColor=#82b366;" parent="1_Ghp_yvbXCePE6jHuqn-1" vertex="1">
          <mxGeometry x="310" y="240" width="220" height="50" as="geometry" />
        </mxCell>
        <mxCell id="1_Ghp_yvbXCePE6jHuqn-7" style="edgeStyle=orthogonalEdgeStyle;rounded=0;orthogonalLoop=1;jettySize=auto;html=1;entryX=0.5;entryY=0;entryDx=0;entryDy=0;" parent="1_Ghp_yvbXCePE6jHuqn-1" source="1_Ghp_yvbXCePE6jHuqn-9" target="1_Ghp_yvbXCePE6jHuqn-5" edge="1">
          <mxGeometry relative="1" as="geometry">
            <Array as="points">
              <mxPoint x="185" y="-20" />
            </Array>
          </mxGeometry>
        </mxCell>
        <mxCell id="1_Ghp_yvbXCePE6jHuqn-8" style="edgeStyle=orthogonalEdgeStyle;rounded=0;orthogonalLoop=1;jettySize=auto;html=1;entryX=0.5;entryY=0;entryDx=0;entryDy=0;" parent="1_Ghp_yvbXCePE6jHuqn-1" source="1_Ghp_yvbXCePE6jHuqn-9" target="1_Ghp_yvbXCePE6jHuqn-4" edge="1">
          <mxGeometry relative="1" as="geometry">
            <Array as="points">
              <mxPoint x="325" y="-20" />
            </Array>
          </mxGeometry>
        </mxCell>
        <mxCell id="tGYrrjvg3axmuHAMdYu1-1" style="edgeStyle=orthogonalEdgeStyle;rounded=0;orthogonalLoop=1;jettySize=auto;html=1;strokeWidth=2;" parent="1_Ghp_yvbXCePE6jHuqn-1" source="1_Ghp_yvbXCePE6jHuqn-9" target="1_Ghp_yvbXCePE6jHuqn-12" edge="1">
          <mxGeometry relative="1" as="geometry" />
        </mxCell>
        <mxCell id="1_Ghp_yvbXCePE6jHuqn-9" value="&lt;font style=&quot;font-size: 18px;&quot;&gt;Container Runtime (e.g Docker, containerd)&lt;/font&gt;" style="rounded=0;whiteSpace=wrap;html=1;fillColor=#d5e8d4;strokeColor=#82b366;" parent="1_Ghp_yvbXCePE6jHuqn-1" vertex="1">
          <mxGeometry x="540" y="-30" width="220" height="70" as="geometry" />
        </mxCell>
        <mxCell id="1_Ghp_yvbXCePE6jHuqn-11" style="edgeStyle=orthogonalEdgeStyle;rounded=0;orthogonalLoop=1;jettySize=auto;html=1;entryX=0.5;entryY=1;entryDx=0;entryDy=0;" parent="1_Ghp_yvbXCePE6jHuqn-1" source="1_Ghp_yvbXCePE6jHuqn-12" target="1_Ghp_yvbXCePE6jHuqn-4" edge="1">
          <mxGeometry relative="1" as="geometry" />
        </mxCell>
        <mxCell id="1_Ghp_yvbXCePE6jHuqn-12" value="&lt;font style=&quot;font-size: 18px;&quot;&gt;Kubelet&lt;/font&gt;" style="rounded=0;whiteSpace=wrap;html=1;fillColor=#d5e8d4;strokeColor=#82b366;" parent="1_Ghp_yvbXCePE6jHuqn-1" vertex="1">
          <mxGeometry x="540" y="132.5" width="220" height="70" as="geometry" />
        </mxCell>
        <mxCell id="tGYrrjvg3axmuHAMdYu1-2" style="edgeStyle=orthogonalEdgeStyle;rounded=0;orthogonalLoop=1;jettySize=auto;html=1;strokeWidth=2;" parent="1_Ghp_yvbXCePE6jHuqn-1" source="1_Ghp_yvbXCePE6jHuqn-13" edge="1">
          <mxGeometry relative="1" as="geometry">
            <mxPoint x="650" y="40" as="targetPoint" />
          </mxGeometry>
        </mxCell>
        <mxCell id="1_Ghp_yvbXCePE6jHuqn-13" value="&lt;font style=&quot;font-size: 16px;&quot;&gt;Container Runtime Interface (CRI)&lt;/font&gt;" style="text;align=left;verticalAlign=middle;rounded=0;html=1;whiteSpace=wrap;" parent="1_Ghp_yvbXCePE6jHuqn-1" vertex="1">
          <mxGeometry x="520" y="102.5" width="260" height="30" as="geometry" />
        </mxCell>
        <mxCell id="1_Ghp_yvbXCePE6jHuqn-14" value="&lt;font style=&quot;font-size: 16px;&quot;&gt;&lt;b&gt;Pull Images, Create, start, stop, and remove containers&lt;/b&gt;&lt;/font&gt;" style="text;whiteSpace=wrap;html=1;" parent="1_Ghp_yvbXCePE6jHuqn-1" vertex="1">
          <mxGeometry x="100" y="-50" width="420" height="40" as="geometry" />
        </mxCell>
        <mxCell id="1_Ghp_yvbXCePE6jHuqn-15" style="edgeStyle=orthogonalEdgeStyle;rounded=0;orthogonalLoop=1;jettySize=auto;html=1;entryX=0.436;entryY=0.986;entryDx=0;entryDy=0;entryPerimeter=0;" parent="1_Ghp_yvbXCePE6jHuqn-1" source="1_Ghp_yvbXCePE6jHuqn-12" target="1_Ghp_yvbXCePE6jHuqn-5" edge="1">
          <mxGeometry relative="1" as="geometry" />
        </mxCell>
        <mxCell id="1_Ghp_yvbXCePE6jHuqn-16" value="&lt;font style=&quot;font-size: 16px;&quot;&gt;Also &lt;strong&gt;directly monitors the health and status&lt;/strong&gt; of containers through &lt;strong&gt;probes&lt;/strong&gt;&lt;/font&gt;" style="text;whiteSpace=wrap;html=1;" parent="1_Ghp_yvbXCePE6jHuqn-1" vertex="1">
          <mxGeometry x="107.5" y="162.5" width="440" height="40" as="geometry" />
        </mxCell>
      </root>
    </mxGraphModel>
  </diagram>
  <diagram id="YCDtQdR2GqGhbRk08c03" name="Policies">
    <mxGraphModel dx="880" dy="542" grid="1" gridSize="10" guides="1" tooltips="1" connect="1" arrows="1" fold="1" page="1" pageScale="1" pageWidth="850" pageHeight="1100" math="0" shadow="0">
      <root>
        <mxCell id="0" />
        <mxCell id="1" parent="0" />
        <mxCell id="oj0ajxo2mJHONf35QBpJ-1" value="&lt;font style=&quot;font-size: 18px;&quot;&gt;&lt;b&gt;Container1&lt;/b&gt;&lt;/font&gt;&lt;div style=&quot;font-size: 18px;&quot;&gt;&lt;font style=&quot;font-size: 18px;&quot;&gt;&lt;span class=&quot;hljs-attr&quot;&gt;name:&lt;/span&gt;&amp;nbsp;&lt;span class=&quot;hljs-string&quot;&gt;app-container&lt;/span&gt;&lt;br&gt;&lt;span class=&quot;hljs-attr&quot;&gt;image:&lt;/span&gt;&amp;nbsp;&lt;span class=&quot;hljs-string&quot;&gt;myapp:latest&lt;/span&gt;&lt;br&gt;&lt;b&gt;&lt;i&gt;&lt;span class=&quot;hljs-attr&quot;&gt;restartPolicy:&lt;/span&gt;&amp;nbsp;&lt;span class=&quot;hljs-string&quot;&gt;OnFailure&lt;/span&gt;&lt;/i&gt;&lt;/b&gt;&lt;/font&gt;&lt;/div&gt;" style="rounded=1;whiteSpace=wrap;html=1;fillColor=#fff2cc;strokeColor=#d6b656;" vertex="1" parent="1">
          <mxGeometry x="40" y="20" width="260" height="190" as="geometry" />
        </mxCell>
        <mxCell id="oj0ajxo2mJHONf35QBpJ-5" value="" style="shape=table;startSize=0;container=1;collapsible=0;childLayout=tableLayout;fontSize=16;" vertex="1" parent="1">
          <mxGeometry x="50" y="250" width="690" height="170" as="geometry" />
        </mxCell>
        <mxCell id="oj0ajxo2mJHONf35QBpJ-6" value="" style="shape=tableRow;horizontal=0;startSize=0;swimlaneHead=0;swimlaneBody=0;strokeColor=inherit;top=0;left=0;bottom=0;right=0;collapsible=0;dropTarget=0;fillColor=none;points=[[0,0.5],[1,0.5]];portConstraint=eastwest;fontSize=16;" vertex="1" parent="oj0ajxo2mJHONf35QBpJ-5">
          <mxGeometry width="690" height="50" as="geometry" />
        </mxCell>
        <mxCell id="oj0ajxo2mJHONf35QBpJ-7" value="&lt;b&gt;Restart Policy&lt;/b&gt;" style="shape=partialRectangle;html=1;whiteSpace=wrap;connectable=0;strokeColor=#d79b00;overflow=hidden;fillColor=#ffe6cc;top=0;left=0;bottom=0;right=0;pointerEvents=1;fontSize=16;" vertex="1" parent="oj0ajxo2mJHONf35QBpJ-6">
          <mxGeometry width="130" height="50" as="geometry">
            <mxRectangle width="130" height="50" as="alternateBounds" />
          </mxGeometry>
        </mxCell>
        <mxCell id="oj0ajxo2mJHONf35QBpJ-8" value="&lt;b&gt;Description&lt;/b&gt;" style="shape=partialRectangle;html=1;whiteSpace=wrap;connectable=0;strokeColor=#d79b00;overflow=hidden;fillColor=#ffe6cc;top=0;left=0;bottom=0;right=0;pointerEvents=1;fontSize=16;" vertex="1" parent="oj0ajxo2mJHONf35QBpJ-6">
          <mxGeometry x="130" width="560" height="50" as="geometry">
            <mxRectangle width="560" height="50" as="alternateBounds" />
          </mxGeometry>
        </mxCell>
        <mxCell id="oj0ajxo2mJHONf35QBpJ-10" value="" style="shape=tableRow;horizontal=0;startSize=0;swimlaneHead=0;swimlaneBody=0;strokeColor=inherit;top=0;left=0;bottom=0;right=0;collapsible=0;dropTarget=0;fillColor=none;points=[[0,0.5],[1,0.5]];portConstraint=eastwest;fontSize=16;" vertex="1" parent="oj0ajxo2mJHONf35QBpJ-5">
          <mxGeometry y="50" width="690" height="40" as="geometry" />
        </mxCell>
        <mxCell id="oj0ajxo2mJHONf35QBpJ-11" value="&lt;b&gt;Always&lt;/b&gt;" style="shape=partialRectangle;html=1;whiteSpace=wrap;connectable=0;strokeColor=#6c8ebf;overflow=hidden;fillColor=#dae8fc;top=0;left=0;bottom=0;right=0;pointerEvents=1;fontSize=16;" vertex="1" parent="oj0ajxo2mJHONf35QBpJ-10">
          <mxGeometry width="130" height="40" as="geometry">
            <mxRectangle width="130" height="40" as="alternateBounds" />
          </mxGeometry>
        </mxCell>
        <mxCell id="oj0ajxo2mJHONf35QBpJ-12" value="Always restarts the container whenever it stops, regardless of exit code." style="shape=partialRectangle;html=1;whiteSpace=wrap;connectable=0;strokeColor=inherit;overflow=hidden;fillColor=none;top=0;left=0;bottom=0;right=0;pointerEvents=1;fontSize=16;" vertex="1" parent="oj0ajxo2mJHONf35QBpJ-10">
          <mxGeometry x="130" width="560" height="40" as="geometry">
            <mxRectangle width="560" height="40" as="alternateBounds" />
          </mxGeometry>
        </mxCell>
        <mxCell id="oj0ajxo2mJHONf35QBpJ-14" value="" style="shape=tableRow;horizontal=0;startSize=0;swimlaneHead=0;swimlaneBody=0;strokeColor=inherit;top=0;left=0;bottom=0;right=0;collapsible=0;dropTarget=0;fillColor=none;points=[[0,0.5],[1,0.5]];portConstraint=eastwest;fontSize=16;" vertex="1" parent="oj0ajxo2mJHONf35QBpJ-5">
          <mxGeometry y="90" width="690" height="40" as="geometry" />
        </mxCell>
        <mxCell id="oj0ajxo2mJHONf35QBpJ-15" value="&lt;b&gt;OnFailure&lt;/b&gt;" style="shape=partialRectangle;html=1;whiteSpace=wrap;connectable=0;strokeColor=#6c8ebf;overflow=hidden;fillColor=#dae8fc;top=0;left=0;bottom=0;right=0;pointerEvents=1;fontSize=16;" vertex="1" parent="oj0ajxo2mJHONf35QBpJ-14">
          <mxGeometry width="130" height="40" as="geometry">
            <mxRectangle width="130" height="40" as="alternateBounds" />
          </mxGeometry>
        </mxCell>
        <mxCell id="oj0ajxo2mJHONf35QBpJ-16" value="Restarts the container only if it exits with a non-zero exit code." style="shape=partialRectangle;html=1;whiteSpace=wrap;connectable=0;strokeColor=inherit;overflow=hidden;fillColor=none;top=0;left=0;bottom=0;right=0;pointerEvents=1;fontSize=16;" vertex="1" parent="oj0ajxo2mJHONf35QBpJ-14">
          <mxGeometry x="130" width="560" height="40" as="geometry">
            <mxRectangle width="560" height="40" as="alternateBounds" />
          </mxGeometry>
        </mxCell>
        <mxCell id="oj0ajxo2mJHONf35QBpJ-18" style="shape=tableRow;horizontal=0;startSize=0;swimlaneHead=0;swimlaneBody=0;strokeColor=inherit;top=0;left=0;bottom=0;right=0;collapsible=0;dropTarget=0;fillColor=none;points=[[0,0.5],[1,0.5]];portConstraint=eastwest;fontSize=16;" vertex="1" parent="oj0ajxo2mJHONf35QBpJ-5">
          <mxGeometry y="130" width="690" height="40" as="geometry" />
        </mxCell>
        <mxCell id="oj0ajxo2mJHONf35QBpJ-19" value="&lt;b&gt;Never&lt;/b&gt;" style="shape=partialRectangle;html=1;whiteSpace=wrap;connectable=0;strokeColor=#6c8ebf;overflow=hidden;fillColor=#dae8fc;top=0;left=0;bottom=0;right=0;pointerEvents=1;fontSize=16;" vertex="1" parent="oj0ajxo2mJHONf35QBpJ-18">
          <mxGeometry width="130" height="40" as="geometry">
            <mxRectangle width="130" height="40" as="alternateBounds" />
          </mxGeometry>
        </mxCell>
        <mxCell id="oj0ajxo2mJHONf35QBpJ-20" value="Does not restart the container, no matter the reason." style="shape=partialRectangle;html=1;whiteSpace=wrap;connectable=0;strokeColor=inherit;overflow=hidden;fillColor=none;top=0;left=0;bottom=0;right=0;pointerEvents=1;fontSize=16;" vertex="1" parent="oj0ajxo2mJHONf35QBpJ-18">
          <mxGeometry x="130" width="560" height="40" as="geometry">
            <mxRectangle width="560" height="40" as="alternateBounds" />
          </mxGeometry>
        </mxCell>
      </root>
    </mxGraphModel>
  </diagram>
  <diagram name="Reporting" id="HurgV9H2kJpo1vcg1SbE">
    <mxGraphModel dx="880" dy="1642" grid="1" gridSize="10" guides="1" tooltips="1" connect="1" arrows="1" fold="1" page="1" pageScale="1" pageWidth="850" pageHeight="1100" math="0" shadow="0">
      <root>
        <mxCell id="sb4tKI2CM1YaQ9rRK_pw-0" />
        <mxCell id="sb4tKI2CM1YaQ9rRK_pw-1" parent="sb4tKI2CM1YaQ9rRK_pw-0" />
        <mxCell id="sb4tKI2CM1YaQ9rRK_pw-2" value="" style="rounded=0;whiteSpace=wrap;html=1;fillColor=#dae8fc;strokeColor=#6c8ebf;" parent="sb4tKI2CM1YaQ9rRK_pw-1" vertex="1">
          <mxGeometry x="100" y="-50" width="680" height="340" as="geometry" />
        </mxCell>
        <mxCell id="sb4tKI2CM1YaQ9rRK_pw-3" value="" style="rounded=0;whiteSpace=wrap;html=1;fillColor=#d5e8d4;strokeColor=#82b366;" parent="sb4tKI2CM1YaQ9rRK_pw-1" vertex="1">
          <mxGeometry x="120" width="280" height="110" as="geometry" />
        </mxCell>
        <mxCell id="sb4tKI2CM1YaQ9rRK_pw-4" value="&lt;font style=&quot;font-size: 18px;&quot;&gt;Container2&lt;/font&gt;" style="rounded=1;whiteSpace=wrap;html=1;" parent="sb4tKI2CM1YaQ9rRK_pw-1" vertex="1">
          <mxGeometry x="270" y="20" width="110" height="70" as="geometry" />
        </mxCell>
        <mxCell id="sb4tKI2CM1YaQ9rRK_pw-5" value="&lt;font style=&quot;font-size: 18px;&quot;&gt;Container1&lt;/font&gt;" style="rounded=1;whiteSpace=wrap;html=1;fillColor=#fff2cc;strokeColor=#d6b656;" parent="sb4tKI2CM1YaQ9rRK_pw-1" vertex="1">
          <mxGeometry x="130" y="20" width="110" height="70" as="geometry" />
        </mxCell>
        <mxCell id="sb4tKI2CM1YaQ9rRK_pw-6" value="&lt;font style=&quot;font-size: 18px;&quot;&gt;Kube-Proxy&lt;/font&gt;" style="rounded=0;whiteSpace=wrap;html=1;fillColor=#d5e8d4;strokeColor=#82b366;" parent="sb4tKI2CM1YaQ9rRK_pw-1" vertex="1">
          <mxGeometry x="290" y="240" width="220" height="50" as="geometry" />
        </mxCell>
        <mxCell id="sb4tKI2CM1YaQ9rRK_pw-7" style="edgeStyle=orthogonalEdgeStyle;rounded=0;orthogonalLoop=1;jettySize=auto;html=1;entryX=0.5;entryY=0;entryDx=0;entryDy=0;" parent="sb4tKI2CM1YaQ9rRK_pw-1" source="sb4tKI2CM1YaQ9rRK_pw-9" target="sb4tKI2CM1YaQ9rRK_pw-5" edge="1">
          <mxGeometry relative="1" as="geometry">
            <Array as="points">
              <mxPoint x="185" y="-20" />
            </Array>
          </mxGeometry>
        </mxCell>
        <mxCell id="sb4tKI2CM1YaQ9rRK_pw-8" style="edgeStyle=orthogonalEdgeStyle;rounded=0;orthogonalLoop=1;jettySize=auto;html=1;entryX=0.5;entryY=0;entryDx=0;entryDy=0;" parent="sb4tKI2CM1YaQ9rRK_pw-1" source="sb4tKI2CM1YaQ9rRK_pw-9" target="sb4tKI2CM1YaQ9rRK_pw-4" edge="1">
          <mxGeometry relative="1" as="geometry">
            <Array as="points">
              <mxPoint x="325" y="-20" />
            </Array>
          </mxGeometry>
        </mxCell>
        <mxCell id="9MlPAKY-uhcBml3YPuOh-5" style="edgeStyle=orthogonalEdgeStyle;rounded=0;orthogonalLoop=1;jettySize=auto;html=1;strokeWidth=2;" edge="1" parent="sb4tKI2CM1YaQ9rRK_pw-1" source="sb4tKI2CM1YaQ9rRK_pw-9" target="sb4tKI2CM1YaQ9rRK_pw-12">
          <mxGeometry relative="1" as="geometry" />
        </mxCell>
        <mxCell id="sb4tKI2CM1YaQ9rRK_pw-9" value="&lt;font style=&quot;font-size: 18px;&quot;&gt;Container Runtime (e.g Docker, containerd)&lt;/font&gt;" style="rounded=0;whiteSpace=wrap;html=1;fillColor=#d5e8d4;strokeColor=#82b366;" parent="sb4tKI2CM1YaQ9rRK_pw-1" vertex="1">
          <mxGeometry x="540" y="-30" width="220" height="70" as="geometry" />
        </mxCell>
        <mxCell id="sb4tKI2CM1YaQ9rRK_pw-11" style="edgeStyle=orthogonalEdgeStyle;rounded=0;orthogonalLoop=1;jettySize=auto;html=1;entryX=0.5;entryY=1;entryDx=0;entryDy=0;" parent="sb4tKI2CM1YaQ9rRK_pw-1" source="sb4tKI2CM1YaQ9rRK_pw-12" target="sb4tKI2CM1YaQ9rRK_pw-4" edge="1">
          <mxGeometry relative="1" as="geometry" />
        </mxCell>
        <mxCell id="bm7WsZm45ZQzSfaotvTb-0" style="edgeStyle=orthogonalEdgeStyle;rounded=0;orthogonalLoop=1;jettySize=auto;html=1;" edge="1" parent="sb4tKI2CM1YaQ9rRK_pw-1" source="sb4tKI2CM1YaQ9rRK_pw-12" target="sb4tKI2CM1YaQ9rRK_pw-18">
          <mxGeometry relative="1" as="geometry" />
        </mxCell>
        <mxCell id="sb4tKI2CM1YaQ9rRK_pw-12" value="&lt;font style=&quot;font-size: 18px;&quot;&gt;Kubelet&lt;/font&gt;" style="rounded=0;whiteSpace=wrap;html=1;fillColor=#d5e8d4;strokeColor=#82b366;" parent="sb4tKI2CM1YaQ9rRK_pw-1" vertex="1">
          <mxGeometry x="540" y="132.5" width="220" height="70" as="geometry" />
        </mxCell>
        <mxCell id="9MlPAKY-uhcBml3YPuOh-6" style="edgeStyle=orthogonalEdgeStyle;rounded=0;orthogonalLoop=1;jettySize=auto;html=1;entryX=0.5;entryY=1;entryDx=0;entryDy=0;strokeWidth=2;" edge="1" parent="sb4tKI2CM1YaQ9rRK_pw-1" source="sb4tKI2CM1YaQ9rRK_pw-13" target="sb4tKI2CM1YaQ9rRK_pw-9">
          <mxGeometry relative="1" as="geometry" />
        </mxCell>
        <mxCell id="sb4tKI2CM1YaQ9rRK_pw-13" value="&lt;font style=&quot;font-size: 16px;&quot;&gt;Container Runtime Interface (CRI)&lt;/font&gt;" style="text;align=left;verticalAlign=middle;rounded=0;html=1;whiteSpace=wrap;" parent="sb4tKI2CM1YaQ9rRK_pw-1" vertex="1">
          <mxGeometry x="520" y="102.5" width="260" height="30" as="geometry" />
        </mxCell>
        <mxCell id="sb4tKI2CM1YaQ9rRK_pw-14" value="&lt;font style=&quot;font-size: 16px;&quot;&gt;&lt;b&gt;Pull Images, Create, start, stop, and remove containers&lt;/b&gt;&lt;/font&gt;" style="text;whiteSpace=wrap;html=1;" parent="sb4tKI2CM1YaQ9rRK_pw-1" vertex="1">
          <mxGeometry x="100" y="-50" width="420" height="40" as="geometry" />
        </mxCell>
        <mxCell id="sb4tKI2CM1YaQ9rRK_pw-15" style="edgeStyle=orthogonalEdgeStyle;rounded=0;orthogonalLoop=1;jettySize=auto;html=1;entryX=0.436;entryY=0.986;entryDx=0;entryDy=0;entryPerimeter=0;" parent="sb4tKI2CM1YaQ9rRK_pw-1" source="sb4tKI2CM1YaQ9rRK_pw-12" target="sb4tKI2CM1YaQ9rRK_pw-5" edge="1">
          <mxGeometry relative="1" as="geometry" />
        </mxCell>
        <mxCell id="sb4tKI2CM1YaQ9rRK_pw-16" value="&lt;font style=&quot;font-size: 16px;&quot;&gt;Also &lt;strong&gt;directly monitors the health and status&lt;/strong&gt; of containers through &lt;strong&gt;probes&lt;/strong&gt;&lt;/font&gt;" style="text;whiteSpace=wrap;html=1;" parent="sb4tKI2CM1YaQ9rRK_pw-1" vertex="1">
          <mxGeometry x="107.5" y="162.5" width="440" height="40" as="geometry" />
        </mxCell>
        <mxCell id="sb4tKI2CM1YaQ9rRK_pw-17" value="" style="rounded=0;whiteSpace=wrap;html=1;fillColor=#dae8fc;strokeColor=#6c8ebf;" parent="sb4tKI2CM1YaQ9rRK_pw-1" vertex="1">
          <mxGeometry x="130" y="340" width="620" height="290" as="geometry" />
        </mxCell>
        <mxCell id="bm7WsZm45ZQzSfaotvTb-1" style="edgeStyle=orthogonalEdgeStyle;rounded=0;orthogonalLoop=1;jettySize=auto;html=1;entryX=0.5;entryY=1;entryDx=0;entryDy=0;strokeWidth=2;" edge="1" parent="sb4tKI2CM1YaQ9rRK_pw-1" source="sb4tKI2CM1YaQ9rRK_pw-18" target="sb4tKI2CM1YaQ9rRK_pw-12">
          <mxGeometry relative="1" as="geometry" />
        </mxCell>
        <mxCell id="sb4tKI2CM1YaQ9rRK_pw-18" value="&lt;font style=&quot;font-size: 18px;&quot;&gt;API-Server&lt;/font&gt;" style="rounded=0;whiteSpace=wrap;html=1;fillColor=#d5e8d4;strokeColor=#82b366;" parent="sb4tKI2CM1YaQ9rRK_pw-1" vertex="1">
          <mxGeometry x="340" y="340" width="220" height="50" as="geometry" />
        </mxCell>
        <mxCell id="sb4tKI2CM1YaQ9rRK_pw-19" value="&lt;font style=&quot;font-size: 18px;&quot;&gt;Controller Manager&lt;/font&gt;" style="rounded=0;whiteSpace=wrap;html=1;fillColor=#d5e8d4;strokeColor=#82b366;" parent="sb4tKI2CM1YaQ9rRK_pw-1" vertex="1">
          <mxGeometry x="150" y="420" width="220" height="70" as="geometry" />
        </mxCell>
        <mxCell id="sb4tKI2CM1YaQ9rRK_pw-20" value="&lt;font style=&quot;font-size: 18px;&quot;&gt;etcd cluster&lt;/font&gt;" style="rounded=0;whiteSpace=wrap;html=1;fillColor=#d5e8d4;strokeColor=#82b366;" parent="sb4tKI2CM1YaQ9rRK_pw-1" vertex="1">
          <mxGeometry x="500" y="420" width="220" height="70" as="geometry" />
        </mxCell>
        <mxCell id="sb4tKI2CM1YaQ9rRK_pw-21" value="&lt;font style=&quot;font-size: 18px;&quot;&gt;kube-Scheduler&lt;/font&gt;" style="rounded=0;whiteSpace=wrap;html=1;fillColor=#d5e8d4;strokeColor=#82b366;" parent="sb4tKI2CM1YaQ9rRK_pw-1" vertex="1">
          <mxGeometry x="330" y="530" width="220" height="70" as="geometry" />
        </mxCell>
        <mxCell id="kV5cKRH_7xfw4fVPB41R-0" value="&lt;font style=&quot;font-size: 16px;&quot;&gt;&lt;b&gt;&lt;i&gt;Container1 had a issue but I fixed&lt;/i&gt;&lt;/b&gt;&lt;/font&gt;" style="text;align=left;verticalAlign=middle;rounded=0;html=1;whiteSpace=wrap;" parent="sb4tKI2CM1YaQ9rRK_pw-1" vertex="1">
          <mxGeometry x="450" y="290" width="260" height="30" as="geometry" />
        </mxCell>
        <mxCell id="kV5cKRH_7xfw4fVPB41R-1" value="&lt;font style=&quot;font-size: 16px;&quot;&gt;&lt;b&gt;&lt;i&gt;OK, (then Updates the Status)&lt;/i&gt;&lt;/b&gt;&lt;/font&gt;" style="text;align=left;verticalAlign=middle;rounded=0;html=1;whiteSpace=wrap;" parent="sb4tKI2CM1YaQ9rRK_pw-1" vertex="1">
          <mxGeometry x="330" y="370" width="260" height="30" as="geometry" />
        </mxCell>
      </root>
    </mxGraphModel>
  </diagram>
</mxfile>
